<?xml version="1.0" encoding="UTF-8" standalone="no"?>
<svg
   xmlns:dc="http://purl.org/dc/elements/1.1/"
   xmlns:cc="http://creativecommons.org/ns#"
   xmlns:rdf="http://www.w3.org/1999/02/22-rdf-syntax-ns#"
   xmlns:svg="http://www.w3.org/2000/svg"
   xmlns="http://www.w3.org/2000/svg"
   xmlns:sodipodi="http://sodipodi.sourceforge.net/DTD/sodipodi-0.dtd"
   xmlns:inkscape="http://www.inkscape.org/namespaces/inkscape"
   inkscape:version="1.0 (4035a4fb49, 2020-05-01)"
   sodipodi:docname="basketball.svg"
   id="svg4"
   version="1.1"
   width="2300"
   height="1250">
  <metadata
     id="metadata10">
    <rdf:RDF>
      <cc:Work
         rdf:about="">
        <dc:format>image/svg+xml</dc:format>
        <dc:type
           rdf:resource="http://purl.org/dc/dcmitype/StillImage" />
        <dc:title />
      </cc:Work>
    </rdf:RDF>
  </metadata>
  <defs
     id="defs8" />
  <sodipodi:namedview
     inkscape:current-layer="svg4"
     inkscape:window-maximized="0"
     inkscape:window-y="11"
     inkscape:window-x="1594"
     inkscape:cy="859.23294"
     inkscape:cx="1283.1177"
     inkscape:zoom="0.46043478"
     showgrid="false"
     id="namedview6"
     inkscape:window-height="1296"
     inkscape:window-width="1892"
     inkscape:pageshadow="2"
     inkscape:pageopacity="0"
     guidetolerance="10"
     gridtolerance="10"
     objecttolerance="10"
     borderopacity="1"
     bordercolor="#666666"
     pagecolor="#000000"
     inkscape:document-rotation="0" />
  <path
     id="path1419"
     style="fill:none;stroke:#ffaf6e;stroke-width:5.836;stroke-linecap:round;stroke-linejoin:miter;stroke-miterlimit:4;stroke-dasharray:none;stroke-opacity:1;paint-order:stroke fill markers"
     d="m 1061.6982,1159.6901 c -1.7547,-4.5372 -4.7984,-8.7536 -4.2582,-13.8775 -1.1536,-5.1106 -2.0288,-11.9308 2.9843,-15.3208 7.3373,-2.5119 6.2692,-11.1456 4.8435,-17.1319 -1.3034,-6.3055 4.9766,-9.9396 7.1884,-14.9857 1.2451,-5.1062 1.1079,-10.6349 4.0642,-15.2321 3.1991,-6.0229 6.4628,-12.1619 7.2834,-19.0395 2.6531,-7.0289 6.7288,-13.4457 9.5462,-20.4283 3.4971,-5.7553 2.2059,-13.1139 5.7474,-18.7247 5.2649,-3.4531 8.7497,4.4021 9.3139,8.6707 1.5826,9.2713 -1.3745,19.2632 -7.089,26.6507 -5.5986,5.7267 -6.7146,14.1014 -11.2494,20.5412 -2.5361,4.5794 -2.3691,10.0065 -2.983,15.0657 0.2624,6.6652 9.5775,3.6049 14.023,4.186 6.3201,-1.8723 8.1403,6.1345 2.4907,8.3278 -2.2754,1.421 -8.8727,7.5041 -2.7902,4.0406 4.9444,-3.505 12.9735,-6.6033 16.3557,0.644 1.2341,2.9164 -6.8588,10.5774 -1.469,5.446 3.6605,-4.2071 8.6722,-7.6727 14.4654,-5.7203 6.598,1.2535 13.5328,6.2136 13.4538,13.5491 1.3998,5.7224 -3.7016,7.0014 -7.5505,8.6947 -2.4899,4.8298 -1.8883,12.0626 -7.8717,14.3787 -6.9192,-0.095 -5.4864,9.8867 -12.5227,9.5659 -4.8155,0.9075 -9.7219,1.17 -14.565,1.8879" />
  <path
     id="path1421"
     style="fill:none;stroke:#fd7100;stroke-width:5.836;stroke-linecap:round;stroke-linejoin:miter;stroke-miterlimit:4;stroke-dasharray:none;stroke-opacity:1;paint-order:stroke fill markers"
     d="m 1014.9592,967.38695 c -5.6222,-2.49905 -4.4117,-9.49599 -5.9871,-14.4669 -2.0838,-12.48174 -5.1436,-24.73936 -8.5782,-36.91093 -1.75579,-7.56084 -4.53613,-14.98919 -5.62977,-22.63566 0.18005,-17.71023 -0.0982,-35.46094 0.36732,-53.14596 1.67623,-8.66668 2.72307,-17.52219 4.78678,-26.07261 6.31797,-14.19717 12.18607,-28.64296 18.78477,-42.68496 6.9367,-9.73442 13.1155,-20.05039 20.5627,-29.39314 6.3072,-6.84615 11.6315,-14.75999 18.8676,-20.6635" />
  <path
     id="path1423"
     style="fill:none;stroke:#fd7100;stroke-width:5.836;stroke-linecap:round;stroke-linejoin:miter;stroke-miterlimit:4;stroke-dasharray:none;stroke-opacity:1;paint-order:stroke fill markers"
     d="m 1115.1707,721.21525 c -2.985,6.30773 -7.0834,12.01779 -9.0464,18.80193 -3.7433,6.90711 -10.8723,11.92206 -12.5406,20.01517 -3.6184,8.37423 -10.7405,15.24943 -11.3012,24.73665 -1.2653,11.81384 -7.8497,21.87053 -12.135,32.64116 -1.3377,10.8823 -2.2991,21.83375 -5.4788,32.3775 -3.9932,14.09317 -2.9826,29.00882 -6.0863,43.28463 -3.1415,17.75084 -6.335,35.52497 -8.632,53.39813 -0.9722,11.71993 -1.696,18.54688 -2.5695,30.27447 -0.2602,3.60901 2.2805,6.65785 5.8013,6.48577"
     sodipodi:nodetypes="cccccccccc" />
  <path
     id="path1425"
     style="fill:none;stroke:#fd7100;stroke-width:5.836;stroke-linecap:round;stroke-linejoin:miter;stroke-miterlimit:4;stroke-dasharray:none;stroke-opacity:1;paint-order:stroke fill markers"
     d="m 1097.1485,991.1525 c 4.1103,-8.90846 8.8839,-17.41425 14.6983,-25.32231 6.358,-8.22967 8.947,-18.5012 13.3133,-27.80985 6.7891,-3.25074 7.8542,-11.12208 10.7591,-17.54564 4.8491,-12.51866 10.5911,-24.7267 15.395,-37.20797 2.9115,-11.57044 8.3901,-22.36256 10.3367,-34.20439 1.7157,-7.89615 4.4032,-15.67307 3.7519,-23.85968 0.4293,-25.94694 0.8095,-51.8944 0.8639,-77.84529 -2.3828,-8.29048 -4.4368,-16.48304 -9.3082,-23.76557" />
  <path
     id="path1427"
     style="fill:none;stroke:#fd7100;stroke-width:5.836;stroke-linecap:round;stroke-linejoin:miter;stroke-miterlimit:4;stroke-dasharray:none;stroke-opacity:1;paint-order:stroke fill markers"
     d="m 1212.6096,760.42844 c -0.53,9.23442 1.1702,18.24356 3.6863,27.08842 3.0836,12.38361 3.3761,25.24832 5.0277,37.8708 -1.03,11.70443 -1.4251,23.56521 -3.0094,35.15672 -5.278,12.60299 -11.3714,24.88139 -14.7458,38.19106 -3.6582,10.49619 -9.7664,19.9824 -14.6872,29.92723 -5.944,9.78183 -11.1414,20.05116 -18.3318,29.00453 -5.1103,6.40731 -4.4387,15.37334 -11.2886,20.6123 -4.5405,6.27431 -9.4436,12.52357 -15.9675,16.83397" />
  <path
     id="path1429"
     style="fill:none;stroke:#fd7100;stroke-width:5.836;stroke-linecap:round;stroke-linejoin:miter;stroke-miterlimit:4;stroke-dasharray:none;stroke-opacity:1;paint-order:stroke fill markers"
     d="m 1106.2375,1006.4344 c -14.7442,-2.3296 -30.1197,-1.6144 -43.6933,-8.78293 -19.615,-8.343 -41.4828,-12.57504 -57.9358,-26.97151 -17.30923,-13.85136 -32.44926,-31.62767 -41.03243,-52.20216 -5.10294,-29.31462 -5.84246,-59.38282 -5.02738,-89.10562 0.4348,-21.65631 12.29951,-40.89432 22.96802,-59.0101 11.67824,-18.98496 31.76689,-30.64463 51.46549,-39.78158 25.6613,-9.6401 53.7277,-9.25093 80.7476,-10.35272 27.3577,0.23228 57.4786,5.09024 78.0569,24.56333 17.5067,20.47787 43.9136,31.04513 60.7669,52.32954 21.0648,23.46707 39.3309,52.13609 39.4066,84.78463 0.6149,22.37745 0.2967,46.79537 -11.6118,66.50401 -10.899,13.35171 -24.3864,24.3254 -36.264,36.75957 -18.7918,16.42204 -42.2036,30.02324 -68.033,28.19424 -19.4993,-1.0311 -39.1319,-1.2007 -58.5055,-3.5677 -2.3005,-0.4466 -4.5974,-0.9501 -6.827,-1.6805" />
</svg>
