<?xml version="1.0" encoding="UTF-8" standalone="no"?>
<svg
   xmlns:dc="http://purl.org/dc/elements/1.1/"
   xmlns:cc="http://creativecommons.org/ns#"
   xmlns:rdf="http://www.w3.org/1999/02/22-rdf-syntax-ns#"
   xmlns:svg="http://www.w3.org/2000/svg"
   xmlns="http://www.w3.org/2000/svg"
   xmlns:sodipodi="http://sodipodi.sourceforge.net/DTD/sodipodi-0.dtd"
   xmlns:inkscape="http://www.inkscape.org/namespaces/inkscape"
   inkscape:version="1.0 (4035a4fb49, 2020-05-01)"
   sodipodi:docname="hallo.svg"
   id="svg4"
   version="1.1"
   width="2300"
   height="1250">
  <metadata
     id="metadata10">
    <rdf:RDF>
      <cc:Work
         rdf:about="">
        <dc:format>image/svg+xml</dc:format>
        <dc:type
           rdf:resource="http://purl.org/dc/dcmitype/StillImage" />
        <dc:title></dc:title>
      </cc:Work>
    </rdf:RDF>
  </metadata>
  <defs
     id="defs8" />
  <sodipodi:namedview
     inkscape:current-layer="svg4"
     inkscape:window-maximized="0"
     inkscape:window-y="146"
     inkscape:window-x="950"
     inkscape:cy="918.63468"
     inkscape:cx="1213.2667"
     inkscape:zoom="0.92086956"
     showgrid="false"
     id="namedview6"
     inkscape:window-height="976"
     inkscape:window-width="1443"
     inkscape:pageshadow="2"
     inkscape:pageopacity="0"
     guidetolerance="10"
     gridtolerance="10"
     objecttolerance="10"
     borderopacity="1"
     bordercolor="#666666"
     pagecolor="#000000" />
  <path
     style="fill:none;stroke:#2b1dff;stroke-opacity:1"
     id="path847"
     d="m 1057.938,903.138 c 1.624,20.15 -0.488,39.839 -2.291,59.698 -1.1,12.14 1.212,24.612 0,36.74 -0.773,7.767 -3.876,15.187 -4.58,22.963 -1.911,21.064 0,43.116 0,64.29" />
  <path
     style="fill:none;stroke:#ffffff;stroke-opacity:1"
     id="path845"
     d="m 937.618,992.687 h 118.42" />
  <path
     style="fill:none;stroke:#fa00fa;stroke-opacity:1"
     id="path843"
     d="m 959.436,873.287 c -30.99,58.573 -17.72,121.32 -22.905,183.69 -0.988,11.867 -4.582,22.486 -4.582,34.444 0,3.156 0.036,6.707 2.006,15.39 1.97,8.688 1.794,16.998 11.74,23.644 5.68,3.797 11.756,-7.305 18.323,-9.185 58.223,-16.676 28.227,-5.838 73.302,-9.185 97.095,-15.558 71.05,-18.923 179.596,-28.112 21.636,-1.807 21.07,-3.092 43.524,-4.592 11.427,-0.766 22.918,0.516 34.363,0 26.17,-1.194 51.65,-4.593 77.88,-4.593 25.551,0 53.957,-2.503 77.887,2.297 2.366,0.473 4.53,1.71 6.872,2.296 0.74,0.182 1.949,-0.687 2.291,0 0.194,0.389 0.249,11.147 0,11.481 -4.706,6.288 -11.818,4.714 -18.327,6.886 -3.242,1.084 -5.83,3.851 -9.163,4.593 -3.727,0.832 -7.655,-0.38 -11.454,0 -14.503,1.454 -28.888,3.259 -43.524,4.592 -17.327,1.58 -35.296,-0.58 -52.687,0 -65.008,2.108 -153.967,11.867 -217.011,29.703 -8.248,2.257 -18.312,20.587 -22.14,28.26 -0.341,0.686 1.528,0 2.292,0 h 16.033 c 21.651,0 42.439,-4.593 64.141,-4.593 12.927,0 27.524,1.519 38.942,-2.296 12.718,-4.25 60.708,2.296 75.595,2.296" />
  <path
     style="fill:none;stroke:#effa00;stroke-opacity:1"
     id="path841"
     d="m 1459.609,971.781 c -4.015,-4.022 -17.106,-2.382 -22.784,-4.912 -6.66,-2.967 -46.257,-8.741 -52.687,-2.296 -0.24,0.24 -3.473,19.628 -4.582,22.963 -3.415,10.272 -8.97,30.161 -2.29,41.33 0.878,1.467 3.375,1.084 4.58,2.296 3.625,3.63 4.334,9.319 6.873,13.775 6.012,10.54 4.152,4.86 13.746,16.074 2.484,2.906 3.248,7.976 6.872,9.185 5.985,2.001 14.403,1.05 20.615,2.296 37.218,7.46 45.817,-8.517 45.817,-43.626 0,-11.998 2.91,-27.367 0,-39.034 -0.748,-2.992 -8.345,-12.104 -11.454,-11.481 -3.352,0.668 -0.576,-7.211 -4.709,-6.57 3.848,-12.809 25.145,-3.132 19.13,-9.161" />
  <path
     style="fill:none;stroke:#00fa05;stroke-opacity:1"
     id="path839"
     d="m 1354.359,849.768 c 0,3.827 1.207,7.849 0,11.482 -4.536,13.638 -13.127,25.63 -18.326,39.03 -5.606,14.446 -12.752,28.485 -16.03,43.63 -2.455,11.317 -2.952,22.974 -4.585,34.44 -3.879,27.228 -0.206,-0.218 -6.873,29.85 -1.697,7.66 0,17.37 0,25.258 0,6.95 -3.521,30.38 4.582,34.441 2.076,1.042 9.424,0 11.454,0" />
  <path
     style="fill:none;stroke:#fa0060;stroke-opacity:1"
     id="path837"
     d="m 1292.509,831.397 c -4.676,13.475 -22.327,59.255 -25.197,80.365 -0.642,4.72 0.449,31.829 0,39.03 -1.345,21.566 -2.29,42.624 -2.29,64.296 0,10.661 -6.191,43.626 11.454,43.626" />
  <path
     style="fill:none;stroke:#fa5500;stroke-opacity:1"
     id="path2"
     d="m 1190.572,976.054 c -5.716,-1.421 -53.039,-15.894 -57.27,-13.777 -25.299,12.68 -43.523,31.631 -43.523,59.7 0,3.062 -1.203,6.37 0,9.185 2.23,5.218 9.776,8.165 13.746,11.481 2.487,2.078 4.06,5.276 6.872,6.886 13.97,8.004 45.363,9.173 54.978,-6.886 9.585,-16.016 17.151,-24.208 19.757,-42.48 0.067,-0.48 1.273,-16.728 5.44,-24.109 3.324,7.77 -1.728,16.821 -2.291,25.256 -1.288,19.379 2.478,36.13 4.581,55.108 0.14,1.258 2.012,23.242 9.164,16.074 1.485,-1.488 2.19,-6.789 4.582,-9.185" />
</svg>
