<?xml version="1.0" encoding="UTF-8" standalone="no"?>
<svg
   xmlns:dc="http://purl.org/dc/elements/1.1/"
   xmlns:cc="http://creativecommons.org/ns#"
   xmlns:rdf="http://www.w3.org/1999/02/22-rdf-syntax-ns#"
   xmlns:svg="http://www.w3.org/2000/svg"
   xmlns="http://www.w3.org/2000/svg"
   xmlns:sodipodi="http://sodipodi.sourceforge.net/DTD/sodipodi-0.dtd"
   xmlns:inkscape="http://www.inkscape.org/namespaces/inkscape"
   inkscape:version="1.0 (4035a4fb49, 2020-05-01)"
   sodipodi:docname="manual-dickbutt.svg"
   id="svg16"
   version="1.1"
   height="1250"
   width="2300">
  <metadata
     id="metadata22">
    <rdf:RDF>
      <cc:Work
         rdf:about="">
        <dc:format>image/svg+xml</dc:format>
        <dc:type
           rdf:resource="http://purl.org/dc/dcmitype/StillImage" />
        <dc:title />
      </cc:Work>
    </rdf:RDF>
  </metadata>
  <defs
     id="defs20" />
  <sodipodi:namedview
     inkscape:current-layer="svg16"
     inkscape:window-maximized="1"
     inkscape:window-y="-8"
     inkscape:window-x="-8"
     inkscape:cy="772.68753"
     inkscape:cx="491.73044"
     inkscape:zoom="0.65115311"
     units="px"
     showgrid="false"
     id="namedview18"
     inkscape:window-height="1377"
     inkscape:window-width="5120"
     inkscape:pageshadow="2"
     inkscape:pageopacity="0"
     guidetolerance="10"
     gridtolerance="10"
     objecttolerance="10"
     borderopacity="1"
     bordercolor="#666666"
     pagecolor="#000000"
     inkscape:document-rotation="0" />
  <path
     id="path2"
     stroke="#ffffff"
     stroke-linecap="round"
     fill="none"
     d="m 1040.9236,651.1694 c 8.1533,-21.5935 -13.0736,-41.02802 -36.2543,-38.69553 -21.71564,2.18464 -35.43686,22.51232 -26.62864,40.9767 10.61164,22.2484 54.16024,20.82252 62.88294,-2.28117 z m 64.3895,116.60956 c -1.0239,36.06003 -1.4161,80.74623 -4.891,116.66703 -13.8189,3.05702 -40.2656,33.44282 -4.2324,27.56702 15.5479,25.26877 21.2232,4.63688 23.8991,-11.07712 22.7322,21.85494 32.0011,-5.66449 9.6769,-18.38256 -18.3825,-16.42511 -4.3644,-51.30734 -3.7547,-66.05119 1.498,-13.00038 3.1621,-25.9836 4.5269,-38.99737 m -79.9312,203.33794 c -9.6147,15.1752 -12.5568,63.48659 -38.0162,42.14969 -9.099,-11.1859 -36.41436,-20.3228 -24.29498,3.7449 6.84232,17.3647 33.96328,61.4559 46.19758,40.1214 16.6707,-25.0513 32.8808,-50.4154 47.72,-76.59319 m 176.2877,-134.04027 c 22.3253,-36.77726 46.1304,-68.50837 64.2954,-107.48249 10.8255,-29.44624 46.8305,-15.7519 40.6285,12.75597 -6.7983,27.80409 -26.0826,67.11912 -39.5948,82.2784 7.2137,5.15373 50.2358,-0.86135 41.3616,23.23936 -6.1275,8.25958 -16.1808,10.1449 -24.9365,8.34023 50.617,28.94283 21.1707,53.729 -25.1209,47.14823 M 1057.4893,668.40217 c 10.1705,8.05923 -33.3598,24.16791 -33.0629,12.17926 -0.3128,-7.26137 23.5448,-19.62879 32.0915,-34.31525"
     style="stroke-width:1.22183" />
  <path
     id="path4"
     stroke="#fdfdfd"
     stroke-linecap="round"
     fill="none"
     d="m 1123.8521,703.64724 c -46.6094,5.5899 -96.3003,5.74263 -144.3709,1.51874"
     style="stroke-width:1.22183" />
  <path
     id="path6"
     stroke-width="3.6655"
     stroke="#ff9034"
     stroke-linecap="round"
     fill="none"
     d="m 1238.6374,971.22928 1.9818,-0.25905 m -18.5353,-19.29401 3.0399,-0.14905 m -7.5875,-26.49792 -2.1822,2.5304 m 16.0035,-30.63507 1.63,-1.86331 m -21.9087,-54.73578 2.8212,1.69832 m 45.6807,74.87535 -1.8669,1.74842 m -3.2782,21.88555 -1.5517,-2.95932 m 19.4968,-43.8138 -3.1254,-1.18399 m -46.431,-62.34659 0.8406,-1.019 m 14.6205,9.31772 -1.399,1.66415" />
  <path
     id="path8"
     stroke-linecap="round"
     fill="none"
     d="m 1146.5219,673.0146 c 22.9363,-15.16909 3.9722,-43.8749 -16.5008,-48.24418 -25.5193,-5.44572 -50.0048,20.46208 -43.049,41.92363 6.9547,21.46032 42.3733,17.67996 59.5498,6.32055 z"
     stroke="#ffffff"
     style="stroke-width:1.22183" />
  <path
     id="path10"
     stroke-linecap="round"
     fill="none"
     d="m 1276.0524,828.93188 c -30.9088,-19.04844 -53.2109,-15.26684 -81.0529,-3.67651 -8.5651,5.18545 -30.8758,11.5463 -24.8741,24.34019 -10.5872,-37.33321 2.0624,-84.50831 5.6448,-121.84883 3.6252,-43.91277 10.4394,-74.90586 -6.5441,-132.0951 -15.2729,-28.43822 -43.1332,-42.42213 -71.3002,-38.08339 -33.4527,5.60089 -62.5983,29.00515 -83.3231,54.88852"
     stroke="#ffffff"
     style="stroke-width:1.22183" />
  <path
     id="path12"
     stroke-linecap="round"
     stroke-width="42.7643"
     stroke="#ffff00"
     fill="none"
     d="m 1112.4474,647.47091 c -3.1462,1.64092 -6.2875,3.30018 -8.1594,10.03982 m -101.8742,-24.52346 c -6.21906,1.94638 -8.45876,5.48604 -8.15936,10.04104" />
  <path
     id="path14"
     stroke-linecap="round"
     fill="none"
     d="m 991.46134,666.38859 c -2.98498,8.64937 -6.80566,20.80175 -11.98014,38.77739 -5.17447,17.97565 -22.69558,52.46563 -16.3567,104.63315 6.44028,53.01547 13.8556,70.91535 34.70254,120.09665 10.07646,23.77086 41.75496,47.59663 65.17636,55.56543 31.7164,10.7913 70.4486,11.9618 103.6361,15.55769 -2.2641,55.4958 -39.2844,11.3508 -40.339,31.4341 2.6344,21.3088 33.9255,51.9647 46.3235,54.6099 12.4456,-1.1204 21.0168,-53.9391 25.1088,-82.6816 2.1553,-15.70299 37.9233,-5.18659 56.483,-13.29349 26.6409,-12.5336 50.9456,-40.25952 60.1033,-65.91809 4.4731,-22.16039 -5.3101,-42.72149 -23.1929,-57.95897 -24.7959,-15.33896 -59.1845,-15.99262 -89.8416,-0.21139"
     stroke="#fcfcfc"
     style="stroke-width:1.22183" />
</svg>
